<svg width="30" height="30" viewBox="0 0 30 30" fill="none" xmlns="http://www.w3.org/2000/svg">
<path d="M15 0C23.2843 0 30 6.71574 30 15C30 23.2843 23.2843 30 15 30C6.71574 30 0 23.2843 0 15C0 6.71573 6.71573 0 15 0ZM15 2C7.8203 2 2 7.8203 2 15C2 22.1798 7.8203 28 15 28C22.1798 28 28 22.1798 28 15C28 7.8203 22.1798 2 15 2ZM15 5C15.5523 5 16 5.44772 16 6V14.5859L21.707 20.293C22.0976 20.6835 22.0976 21.3165 21.707 21.707C21.3165 22.0976 20.6835 22.0976 20.293 21.707L14.293 15.707C14.2654 15.6794 14.2405 15.65 14.2168 15.6201C14.1807 15.5745 14.148 15.5261 14.1201 15.4746C14.1127 15.4609 14.1063 15.4466 14.0996 15.4326C14.0778 15.3873 14.0578 15.3408 14.043 15.292C14.0303 15.2503 14.0218 15.2077 14.0146 15.165C14.0057 15.1113 14 15.0563 14 15V6C14 5.44772 14.4477 5 15 5Z" fill="#1A6E8E"/>
</svg>
