<svg width="30" height="30" viewBox="0 0 30 30" fill="none" xmlns="http://www.w3.org/2000/svg">
<path fill-rule="evenodd" clip-rule="evenodd" d="M15 2.09302C7.87168 2.09302 2.09302 7.87168 2.09302 15C2.09302 22.1283 7.87168 27.907 15 27.907C22.1283 27.907 27.907 22.1283 27.907 15C27.907 7.87168 22.1283 2.09302 15 2.09302ZM0 15C0 6.71573 6.71573 0 15 0C23.2843 0 30 6.71573 30 15C30 23.2843 23.2843 30 15 30C6.71573 30 0 23.2843 0 15ZM15 9.06977C14.1331 9.06977 13.4302 9.77258 13.4302 10.6395C13.4302 11.2175 12.9617 11.686 12.3837 11.686C11.8058 11.686 11.3372 11.2175 11.3372 10.6395C11.3372 8.61663 12.9772 6.97674 15 6.97674C17.0228 6.97674 18.6628 8.61663 18.6628 10.6395C18.6628 11.9837 17.938 13.1576 16.8632 13.7936C16.5886 13.956 16.362 14.1333 16.2144 14.3073C16.0709 14.4762 16.0465 14.5864 16.0465 14.6512V16.3953C16.0465 16.9733 15.578 17.4419 15 17.4419C14.422 17.4419 13.9535 16.9733 13.9535 16.3953V14.6512C13.9535 13.9453 14.2626 13.3725 14.6185 12.953C14.9701 12.5386 15.4087 12.2221 15.7974 11.9922C16.262 11.7173 16.5698 11.2138 16.5698 10.6395C16.5698 9.77258 15.8669 9.06977 15 9.06977ZM15 21.9767C15.7707 21.9767 16.3953 21.352 16.3953 20.5814C16.3953 19.8107 15.7707 19.186 15 19.186C14.2293 19.186 13.6047 19.8107 13.6047 20.5814C13.6047 21.352 14.2293 21.9767 15 21.9767Z" fill="#1A6E8E"/>
</svg>
