<svg width="30" height="30" viewBox="0 0 30 30" fill="none" xmlns="http://www.w3.org/2000/svg">
<path d="M5.55005 22.59C5.55005 23.27 5.84005 23.81 6.42005 24.21C6.74005 24.39 7.08005 24.48 7.44005 24.48C7.72005 24.48 8.00005 24.41 8.28005 24.27L23.43 16.71C23.73 16.55 23.98 16.32 24.18 16.02C24.38 15.72 24.47 15.38 24.45 15C24.43 14.62 24.34 14.29 24.18 14.01C24.02 13.73 23.7701 13.5 23.43 13.32L8.28005 5.75999C8.00005 5.61999 7.72005 5.54999 7.44005 5.54999C7.10005 5.54999 6.76005 5.63999 6.42005 5.81999C5.84005 6.19999 5.55005 6.73999 5.55005 7.43999V22.59Z" fill="#1A6E8E"/>
</svg>
